# xmcd
#
# Track frame offsets: 
#        150
#        12990
#        25906
#        40354
#        55497
#        72378
#        89041
#        101951
#        117671
#        130957
#        144076
#        153256
#        164029
#        174740
#        188257
#        198349
#        209761
#
# Disc length: 2944 seconds
#
# Revision: 2
# Processed by: cddbd v1.5.2PL0 Copyright (c) Steve Scherf et al.
# Submitted via: ExactAudioCopy v1.0b1
#
DISCID=020b7e11
DTITLE=B.B. King - The  Modern Recordings 1950-1951
DYEAR=2002
DGENRE=Blues
TTITLE0=Mistreated Woman (take 1) (mono)
TTITLE1=Mistreated Woman (take 2) (mono)
TTITLE2=B. B. Boogie (take 1) (mono)
TTITLE3=B. B. Boogie (take 2) (mono)
TTITLE4=The Other Night Blues (take 1) (mono)
TTITLE5=The Other Night Blues (take 2) (mono)
TTITLE6=The Other Night Blues (take 3) (mono)
TTITLE7=Walkin' And Cryin' (take 1) (mono)
TTITLE8=Walkin' And Cryin' (take 2) (mono)
TTITLE9=Walkin' And Cryin' (take 3) (mono)
TTITLE10=My Baby's Gone (mono)
TTITLE11=Don't You Want A Man Like Me (alt) (mono)
TTITLE12=Don't You Want A Man Like Me (mono)
TTITLE13=Questionnaire Blues (mono)
TTITLE14=B. B. Blues (take 1 - false start) (mono)
TTITLE15=B. B. Blues (take 2) (mono)
TTITLE16=B. B. Blues (take 3) (mono)
EXTD=
EXTT0=
EXTT1=
EXTT2=
EXTT3=
EXTT4=
EXTT5=
EXTT6=
EXTT7=
EXTT8=
EXTT9=
EXTT10=
EXTT11=
EXTT12=
EXTT13=
EXTT14=
EXTT15=
EXTT16=
PLAYORDER=
